<svg width="26" height="26" viewBox="0 0 26 26" fill="none" xmlns="http://www.w3.org/2000/svg">
<path d="M17.6663 2.97726H7.69765C5.49503 2.97726 3.70605 4.77658 3.70605 6.96885V21.5392C3.70605 23.4006 5.04003 24.1865 6.6739 23.2868L11.7203 20.4844C12.258 20.1845 13.1266 20.1845 13.654 20.4844L18.7004 23.2868C20.3342 24.1968 21.6682 23.4109 21.6682 21.5392V6.96885C21.6579 4.77658 19.8689 2.97726 17.6663 2.97726Z" stroke="#292D32" stroke-width="1.5" stroke-linecap="round" stroke-linejoin="round"/>
<path d="M17.6663 2.97726H7.69765C5.49503 2.97726 3.70605 4.77658 3.70605 6.96885V21.5392C3.70605 23.4006 5.04003 24.1865 6.6739 23.2868L11.7203 20.4844C12.258 20.1845 13.1266 20.1845 13.654 20.4844L18.7004 23.2868C20.3342 24.1968 21.6682 23.4109 21.6682 21.5392V6.96885C21.6579 4.77658 19.8689 2.97726 17.6663 2.97726Z" stroke="#292D32" stroke-width="1.5" stroke-linecap="round" stroke-linejoin="round"/>
</svg>
