<svg width="32" height="23" viewBox="0 0 32 23" fill="none" xmlns="http://www.w3.org/2000/svg">
<path d="M7.19965 23.0002C5.49985 23.0004 3.85476 22.3832 2.55545 21.2579C1.25615 20.1326 0.386373 18.5716 0.100016 16.8512C-0.186342 15.1308 0.129178 13.3619 0.99075 11.8573C1.85232 10.3528 3.20441 9.2097 4.80779 8.63023C4.80121 8.49171 4.79792 8.35306 4.79792 8.21428C4.79728 6.40429 5.37883 4.64475 6.45223 3.20902C7.52563 1.77329 9.03077 0.741754 10.7338 0.27466C12.4369 -0.192434 14.2425 -0.0689309 15.8702 0.625984C17.4978 1.3209 18.8564 2.54832 19.7349 4.11755C20.5135 3.55455 21.4476 3.26308 22.3997 3.28604C23.031 3.28232 23.6568 3.40725 24.2408 3.65359C24.8248 3.89994 25.3554 4.2628 25.8018 4.72117C26.2482 5.17953 26.6017 5.7243 26.8416 6.3239C27.0816 6.92351 27.2033 7.56604 27.1997 8.21428C27.1994 8.82151 27.0909 9.42355 26.8797 9.99074C28.4338 10.3162 29.8148 11.2226 30.7549 12.5342C31.6951 13.8459 32.1274 15.4692 31.968 17.0896C31.8086 18.7099 31.0688 20.2117 29.8922 21.3038C28.7156 22.3959 27.1859 23.0004 25.5999 23.0002H7.19965ZM15.1482 18.4875C15.2502 18.6106 15.377 18.7095 15.5199 18.7773C15.6627 18.8452 15.8183 18.8803 15.9757 18.8803C16.1331 18.8803 16.2886 18.8452 16.4315 18.7773C16.5744 18.7095 16.7012 18.6106 16.8031 18.4875L20.8051 14.3802C20.925 14.2755 21.0214 14.1453 21.0874 13.9986C21.1535 13.8519 21.1877 13.6922 21.1877 13.5306C21.1877 13.369 21.1535 13.2093 21.0874 13.0626C21.0214 12.9159 20.925 12.7857 20.8051 12.681C20.6975 12.5676 20.5688 12.4775 20.4267 12.4159C20.2846 12.3544 20.1319 12.3227 19.9777 12.3227C19.8234 12.3227 19.6708 12.3544 19.5287 12.4159C19.3865 12.4775 19.2579 12.5676 19.1502 12.681L17.1984 14.6882V7.80379C17.2012 7.64015 17.1723 7.47757 17.1132 7.32554C17.0542 7.17351 16.9663 7.03508 16.8546 6.91832C16.7429 6.80157 16.6096 6.70883 16.4626 6.64553C16.3156 6.58222 16.1578 6.54962 15.9985 6.54962C15.8391 6.54962 15.6813 6.58222 15.5343 6.64553C15.3873 6.70883 15.254 6.80157 15.1423 6.91832C15.0306 7.03508 14.9427 7.17351 14.8837 7.32554C14.8246 7.47757 14.7957 7.64015 14.7985 7.80379V14.6882L12.8034 12.681C12.584 12.4556 12.2863 12.329 11.976 12.329C11.6656 12.329 11.3679 12.4556 11.1485 12.681C10.929 12.9063 10.8057 13.2119 10.8057 13.5306C10.8057 13.8493 10.929 14.1549 11.1485 14.3802L15.1482 18.4875Z" fill="black"/>
</svg>
