<svg width="12" height="8" viewBox="0 0 12 8" fill="none" xmlns="http://www.w3.org/2000/svg">
<g clip-path="url(#clip0_102_654)">
<path d="M3.37106 1.95674C3.83126 1.54098 4.44443 1.29853 5.08971 1.27717C5.73499 1.25582 6.36559 1.45712 6.8572 1.84139C7.34882 2.22566 7.66581 2.76504 7.74568 3.35321C7.82556 3.94138 7.66253 4.53568 7.28873 5.01898L7.26902 5.04527C7.18113 5.15846 7.04785 5.23497 6.89851 5.25795C6.74917 5.28094 6.596 5.24853 6.47269 5.16785C6.34938 5.08716 6.26604 4.96482 6.241 4.82773C6.21596 4.69065 6.25127 4.55004 6.33916 4.43685L6.35888 4.41056C6.56847 4.14128 6.66012 3.80951 6.61564 3.48108C6.57115 3.15266 6.39379 2.85158 6.11874 2.63761C5.84369 2.42365 5.49106 2.31242 5.13082 2.326C4.77059 2.33959 4.42909 2.47699 4.17408 2.71095L2.17452 4.54782C1.91914 4.78157 1.76893 5.09498 1.75373 5.42574C1.73853 5.7565 1.85947 6.0804 2.0925 6.33306C2.32552 6.58573 2.65359 6.74866 3.01148 6.78947C3.36938 6.83029 3.7309 6.74599 4.02419 6.55335L4.05283 6.51921C4.1791 6.44401 4.33204 6.41624 4.47999 6.44166C4.62794 6.46708 4.75958 6.54374 4.84767 6.65578C4.89138 6.71173 4.92263 6.77505 4.93965 6.84211C4.95667 6.90917 4.95911 6.97865 4.94685 7.04658C4.93459 7.1145 4.90785 7.17954 4.86818 7.23797C4.8285 7.29641 4.77667 7.34709 4.71563 7.38711L4.68699 7.4052C4.1608 7.74975 3.51276 7.9002 2.8714 7.8267C2.23003 7.75321 1.64217 7.46114 1.2244 7.00842C0.806622 6.55571 0.589447 5.9754 0.615936 5.38258C0.642425 4.78977 0.910644 4.22774 1.3674 3.80795L3.37106 1.95674ZM8.62773 6.02824C8.17047 6.4479 7.55805 6.69442 6.912 6.71888C6.26596 6.74333 5.6335 6.54395 5.14015 6.16028C4.6468 5.77661 4.32861 5.2367 4.24873 4.64771C4.16886 4.05871 4.33312 3.46367 4.70894 2.98068L4.72865 2.95439C4.77217 2.89834 4.82729 2.85071 4.89086 2.81422C4.95444 2.77773 5.02522 2.75309 5.09916 2.74171C5.17311 2.73033 5.24877 2.73242 5.32183 2.74789C5.3949 2.76335 5.46393 2.79187 5.52498 2.83182C5.58604 2.87176 5.63792 2.92236 5.67767 2.98072C5.71743 3.03907 5.74427 3.10405 5.75667 3.17193C5.76907 3.2398 5.76678 3.30926 5.74994 3.37633C5.7331 3.44339 5.70203 3.50676 5.65851 3.56281L5.63879 3.5891C5.4292 3.85838 5.33755 4.19015 5.38203 4.51858C5.42652 4.847 5.60388 5.14808 5.87893 5.36205C6.15399 5.57601 6.50662 5.68725 6.86685 5.67366C7.22708 5.66008 7.56858 5.52267 7.82359 5.28871L9.82315 3.45184C10.0785 3.21809 10.2287 2.90468 10.2439 2.57392C10.2591 2.24316 10.1382 1.91926 9.90518 1.6666C9.67215 1.41393 9.34408 1.251 8.98619 1.21019C8.6283 1.16938 8.26677 1.25367 7.97348 1.44631L7.94484 1.46441C7.8208 1.542 7.66892 1.57267 7.52085 1.55003C7.37278 1.52739 7.23994 1.45318 7.15 1.34286C7.10632 1.28698 7.07509 1.22375 7.05809 1.15677C7.04109 1.08979 7.03865 1.0204 7.05091 0.952553C7.06318 0.88471 7.08991 0.819756 7.12957 0.761412C7.16923 0.703068 7.22104 0.652482 7.28204 0.612552L7.31068 0.594114C7.83673 0.248382 8.48524 0.0969833 9.12731 0.170006C9.76939 0.243028 10.358 0.535125 10.7763 0.988251C11.1945 1.44138 11.4117 2.02236 11.3847 2.61574C11.3578 3.20913 11.0886 3.77147 10.6306 4.19103L8.62773 6.02824Z" fill="black"/>
</g>
<defs>
<clipPath id="clip0_102_654">
<rect width="10.7692" height="7.69231" fill="white" transform="translate(0.615234 0.153854)"/>
</clipPath>
</defs>
</svg>
