<svg width="14" height="14" viewBox="0 0 14 14" fill="none" xmlns="http://www.w3.org/2000/svg">
<path d="M8.00887 2.04742L9.03554 4.10075C9.17554 4.38658 9.54887 4.66075 9.86387 4.71325L11.7247 5.02242C12.9147 5.22075 13.1947 6.08408 12.3372 6.93575L10.8905 8.38242C10.6455 8.62742 10.5114 9.09992 10.5872 9.43825L11.0014 11.2291C11.328 12.6466 10.5755 13.1949 9.32137 12.4541L7.5772 11.4216C7.2622 11.2349 6.74304 11.2349 6.4222 11.4216L4.67804 12.4541C3.4297 13.1949 2.67137 12.6407 2.99804 11.2291L3.4122 9.43825C3.48804 9.09992 3.35387 8.62742 3.10887 8.38242L1.6622 6.93575C0.810536 6.08408 1.0847 5.22075 2.2747 5.02242L4.13554 4.71325C4.4447 4.66075 4.81804 4.38658 4.95804 4.10075L5.9847 2.04742C6.5447 0.93325 7.4547 0.93325 8.00887 2.04742Z" fill="#FBD85D"/>
</svg>
