<svg width="16" height="16" viewBox="0 0 16 16" fill="none" xmlns="http://www.w3.org/2000/svg">
<path d="M5.10004 13.94C5.08004 13.94 5.05337 13.9533 5.03337 13.9533C3.74004 13.3133 2.68671 12.2533 2.04004 10.96C2.04004 10.94 2.05337 10.9133 2.05337 10.8933C2.86671 11.1333 3.70671 11.3133 4.54004 11.4533C4.68671 12.2933 4.86004 13.1267 5.10004 13.94Z" fill="#292D32"/>
<path d="M13.96 10.9667C13.3 12.2933 12.2 13.3667 10.86 14.0133C11.1133 13.1667 11.3267 12.3133 11.4667 11.4533C12.3067 11.3133 13.1333 11.1333 13.9467 10.8933C13.94 10.92 13.96 10.9467 13.96 10.9667Z" fill="#292D32"/>
<path d="M14.0133 5.14C13.1733 4.88666 12.3267 4.68 11.4667 4.53333C11.3267 3.67333 11.12 2.82 10.86 1.98666C12.24 2.64666 13.3533 3.76 14.0133 5.14Z" fill="#292D32"/>
<path d="M5.10003 2.06C4.86003 2.87333 4.68669 3.7 4.54669 4.54C3.68669 4.67333 2.83336 4.88667 1.98669 5.14C2.63336 3.8 3.70669 2.7 5.03336 2.04C5.05336 2.04 5.08003 2.06 5.10003 2.06Z" fill="#292D32"/>
<path d="M10.3267 4.39334C8.78001 4.22 7.22001 4.22 5.67334 4.39334C5.84001 3.48 6.05334 2.56667 6.35334 1.68667C6.36667 1.63334 6.36001 1.59334 6.36667 1.54C6.89334 1.41334 7.43334 1.33334 8.00001 1.33334C8.56001 1.33334 9.10667 1.41334 9.62667 1.54C9.63334 1.59334 9.63334 1.63334 9.64667 1.68667C9.94667 2.57334 10.16 3.48 10.3267 4.39334Z" fill="#292D32"/>
<path d="M4.39337 10.3267C3.47337 10.16 2.56671 9.94667 1.68671 9.64667C1.63337 9.63333 1.59337 9.64 1.54004 9.63333C1.41337 9.10667 1.33337 8.56667 1.33337 8C1.33337 7.44 1.41337 6.89333 1.54004 6.37333C1.59337 6.36667 1.63337 6.36667 1.68671 6.35333C2.57337 6.06 3.47337 5.84 4.39337 5.67333C4.22671 7.22 4.22671 8.78 4.39337 10.3267Z" fill="#292D32"/>
<path d="M14.6667 8C14.6667 8.56667 14.5867 9.10667 14.46 9.63333C14.4067 9.64 14.3667 9.63333 14.3134 9.64667C13.4267 9.94 12.52 10.16 11.6067 10.3267C11.78 8.78 11.78 7.22 11.6067 5.67333C12.52 5.84 13.4334 6.05333 14.3134 6.35333C14.3667 6.36667 14.4067 6.37333 14.46 6.37333C14.5867 6.9 14.6667 7.44 14.6667 8Z" fill="#292D32"/>
<path d="M10.3267 11.6067C10.16 12.5267 9.94667 13.4333 9.64667 14.3133C9.63334 14.3667 9.63334 14.4067 9.62667 14.46C9.10667 14.5867 8.56001 14.6667 8.00001 14.6667C7.43334 14.6667 6.89334 14.5867 6.36667 14.46C6.36001 14.4067 6.36667 14.3667 6.35334 14.3133C6.06001 13.4267 5.84001 12.5267 5.67334 11.6067C6.44667 11.6933 7.22001 11.7533 8.00001 11.7533C8.78001 11.7533 9.56001 11.6933 10.3267 11.6067Z" fill="#292D32"/>
<path d="M10.5089 10.5089C8.84153 10.7193 7.15855 10.7193 5.49115 10.5089C5.28078 8.84149 5.28078 7.15851 5.49115 5.49112C7.15855 5.28074 8.84153 5.28074 10.5089 5.49112C10.7193 7.15851 10.7193 8.84149 10.5089 10.5089Z" fill="#292D32"/>
</svg>
