<svg width="12" height="12" viewBox="0 0 12 12" fill="none" xmlns="http://www.w3.org/2000/svg">
<g clip-path="url(#clip0_102_662)">
<path d="M9.77172 2.18045C8.85609 1.26566 7.63929 0.714689 6.34775 0.630078C5.05622 0.545466 3.77793 0.932975 2.75078 1.72049C1.72363 2.508 1.01758 3.64188 0.764032 4.9111C0.510483 6.18033 0.726702 7.49844 1.37245 8.62015L0.615234 11.3846L3.44455 10.6416C4.2274 11.0683 5.10492 11.2915 5.9965 11.2905H5.99901C7.06208 11.3075 8.10571 11.0045 8.99443 10.421C9.88315 9.83737 10.5759 9.00009 10.9828 8.01783C11.3897 7.03556 11.4919 5.95366 11.2761 4.91258C11.0604 3.87149 10.5367 2.9193 9.77297 2.17961L9.77172 2.18045ZM5.99734 10.3919C5.2025 10.3924 4.42216 10.179 3.73824 9.77396L3.57717 9.67774L1.89874 10.1179L2.34596 8.48042L2.24012 8.31308C1.88495 7.72875 1.66941 7.07034 1.61027 6.3891C1.55114 5.70786 1.65 5.02217 1.89917 4.38538C2.14834 3.74859 2.54109 3.17789 3.04686 2.71769C3.55263 2.25749 4.15777 1.92021 4.81519 1.73209C5.47261 1.54398 6.16457 1.5101 6.83721 1.63311C7.50986 1.75611 8.14505 2.03268 8.69335 2.44128C9.24165 2.84988 9.68827 3.37949 9.99844 3.9889C10.3086 4.5983 10.474 5.27107 10.4817 5.95483C10.469 7.13586 9.99098 8.26423 9.1514 9.09496C8.31182 9.92569 7.17844 10.3917 5.99734 10.3919ZM8.43006 7.06974C8.29786 7.00238 7.64147 6.68025 7.51889 6.63716C7.39631 6.59407 7.3072 6.5698 7.21851 6.70451C7.12982 6.83922 6.87463 7.13709 6.79556 7.22871C6.71649 7.32033 6.63951 7.32953 6.50689 7.26218C5.73917 6.95598 5.09894 6.39692 4.69208 5.67746C4.55486 5.44193 4.8293 5.45866 5.08408 4.94911C5.10139 4.91227 5.10935 4.87172 5.10723 4.83107C5.10511 4.79042 5.09299 4.75092 5.07194 4.71608C5.03848 4.64873 4.77157 3.99233 4.6607 3.72584C4.55235 3.46605 4.44191 3.50244 4.36033 3.49742C4.27875 3.4924 4.19299 3.49282 4.10555 3.49282C4.03798 3.4949 3.97156 3.51083 3.9104 3.53961C3.84923 3.5684 3.79462 3.60943 3.74995 3.66016C3.59932 3.80319 3.48007 3.97598 3.39976 4.16755C3.31946 4.35912 3.27987 4.56529 3.28349 4.77298C3.32751 5.27606 3.51642 5.7556 3.82735 6.15354C4.39989 7.01082 5.18506 7.70488 6.10611 8.16791C6.95244 8.53313 7.28419 8.56451 7.70715 8.50259C7.89317 8.4643 8.06917 8.38764 8.2239 8.2775C8.37863 8.16736 8.50869 8.02617 8.60577 7.86293C8.69281 7.66343 8.71956 7.44282 8.68275 7.22829C8.65137 7.16847 8.56352 7.13458 8.43006 7.06974Z" fill="black"/>
</g>
<defs>
<clipPath id="clip0_102_662">
<rect width="10.7692" height="10.7692" fill="white" transform="translate(0.615234 0.615387)"/>
</clipPath>
</defs>
</svg>
